<?xml version="1.0" standalone="no"?>
<!DOCTYPE svg PUBLIC "-//W3C//DTD SVG 20010904//EN"
 "http://www.w3.org/TR/2001/REC-SVG-20010904/DTD/svg10.dtd">
<svg version="1.0" xmlns="http://www.w3.org/2000/svg"
 width="460.000000pt" height="460.000000pt" viewBox="0 0 460.000000 460.000000"
 preserveAspectRatio="xMidYMid meet">
<metadata>
Created by potrace 1.14, written by Peter Selinger 2001-2017
</metadata>
<g transform="translate(0.000000,460.000000) scale(0.100000,-0.100000)"
fill="#000000" stroke="none">
<path d="M0 2300 l0 -2300 2300 0 2300 0 0 2300 0 2300 -2300 0 -2300 0 0
-2300z m2405 2170 c-5 -8 -11 -8 -17 -2 -6 6 -7 16 -3 22 5 8 11 8 17 2 6 -6
7 -16 3 -22z m248 -25 c1 -5 -6 -11 -15 -13 -11 -2 -18 3 -18 13 0 17 30 18
33 0z m275 -2 c-4 -22 -22 -20 -26 1 -2 10 3 16 13 16 10 0 15 -7 13 -17z
m-1070 -21 c2 -14 -2 -22 -12 -22 -19 0 -29 17 -22 36 8 22 30 12 34 -14z
m311 -8 c2 -10 8 -22 14 -25 14 -10 1 -39 -18 -39 -8 0 -15 8 -15 18 0 10 -5
23 -11 29 -14 14 -3 46 14 41 6 -3 14 -13 16 -24z m956 -4 c0 -23 -49 -20 -53
3 -3 15 2 18 25 15 17 -2 28 -9 28 -18z m-1680 -38 c0 -18 -20 -15 -23 4 -3
10 1 15 10 12 7 -3 13 -10 13 -16z m1190 -12 c0 -22 -29 -18 -33 3 -3 14 1 18
15 15 10 -2 18 -10 18 -18z m-989 -1 c10 -17 -13 -36 -27 -22 -12 12 -4 33 11
33 5 0 12 -5 16 -11z m834 -14 c0 -8 -7 -15 -15 -15 -8 0 -15 7 -15 15 0 8 7
15 15 15 8 0 15 -7 15 -15z m-417 -41 c-3 -8 -9 -14 -13 -14 -13 0 -22 19 -15
30 9 14 34 0 28 -16z m781 7 c38 -42 -23 -83 -66 -44 -21 19 -23 34 -6 51 18
18 53 14 72 -7z m406 4 c0 -8 -7 -15 -15 -15 -16 0 -20 12 -8 23 11 12 23 8
23 -8z m-1337 -18 c2 -7 0 -22 -4 -35 -7 -18 -15 -23 -36 -20 -33 4 -45 44
-18 64 18 13 51 8 58 -9z m476 -8 c12 -11 28 -18 35 -16 21 8 58 -22 54 -45
-4 -30 -33 -46 -56 -32 -14 9 -23 8 -41 -7 -34 -27 -75 -24 -100 7 -28 36 -26
50 8 85 35 34 69 37 100 8z m625 5 c29 -28 12 -57 -30 -52 -32 3 -43 30 -24
53 16 19 35 19 54 -1z m-1424 -9 c13 -15 7 -74 -11 -107 -12 -22 -45 -23 -57
-2 -12 21 -3 107 12 116 18 12 43 9 56 -7z m218 -2 c-5 -26 -38 -29 -38 -4 0
15 6 21 21 21 14 0 19 -5 17 -17z m820 -16 c2 -12 -3 -17 -17 -17 -15 0 -21 6
-21 21 0 25 33 22 38 -4z m902 8 c0 -8 -7 -15 -15 -15 -8 0 -15 7 -15 15 0 8
7 15 15 15 8 0 15 -7 15 -15z m-2190 -15 c0 -13 -7 -20 -20 -20 -13 0 -20 7
-20 20 0 13 7 20 20 20 13 0 20 -7 20 -20z m-310 -34 c0 -8 -5 -18 -11 -22
-14 -8 -33 11 -25 25 10 16 36 13 36 -3z m2668 -3 c-2 -10 -10 -18 -18 -18 -8
0 -16 8 -18 18 -2 12 3 17 18 17 15 0 20 -5 18 -17z m-1560 -5 c7 -7 12 -24
12 -39 0 -32 -32 -48 -55 -29 -27 23 -12 80 20 80 6 0 16 -5 23 -12z m765 -9
c29 -16 37 -28 37 -64 0 -46 -25 -75 -65 -75 -36 0 -65 28 -65 63 0 28 28 75
47 80 10 3 19 5 21 6 2 0 13 -4 25 -10z m241 0 c26 -12 47 -74 38 -112 -11
-46 -80 -58 -116 -21 -25 25 -21 90 9 119 27 28 34 30 69 14z m-1217 -15 c3
-8 1 -20 -6 -27 -14 -14 -47 15 -37 32 10 16 36 13 43 -5z m-499 -6 c-7 -19
-38 -22 -38 -4 0 10 9 16 21 16 12 0 19 -5 17 -12z m2500 -15 c-4 -22 -22 -20
-26 1 -2 10 3 16 13 16 10 0 15 -7 13 -17z m-2746 -10 c39 -35 9 -103 -46
-103 -28 0 -56 29 -56 58 0 54 62 81 102 45z m1522 11 c27 -10 20 -53 -10 -65
-37 -14 -64 -3 -64 26 0 34 37 53 74 39z m-956 -37 c6 -5 12 -24 12 -43 0 -30
-4 -34 -41 -46 -39 -11 -43 -10 -60 11 -24 29 -24 53 -1 73 31 28 59 29 90 5z
m1723 13 c23 -13 24 -33 3 -54 -23 -24 -53 -20 -66 9 -19 42 18 69 63 45z
m-2077 -52 c15 -24 -13 -53 -43 -43 -21 6 -29 43 -14 59 12 12 45 2 57 -16z
m-589 -19 c0 -7 -8 -15 -17 -17 -18 -3 -25 18 -11 32 10 10 28 1 28 -15z
m1709 -22 c13 -21 -1 -47 -34 -64 -32 -16 -60 0 -60 33 0 19 8 29 33 39 37 16
47 15 61 -8z m726 -2 c0 -8 -9 -15 -20 -15 -11 0 -20 7 -20 15 0 8 9 15 20 15
11 0 20 -7 20 -15z m289 -4 c19 -12 6 -41 -19 -41 -13 0 -20 7 -20 18 0 31 14
39 39 23z m226 -21 c0 -7 -6 -15 -12 -17 -8 -3 -13 4 -13 17 0 13 5 20 13 18
6 -3 12 -11 12 -18z m-1455 -11 c9 -16 8 -25 -6 -40 -35 -38 -88 -13 -64 31
18 34 55 39 70 9z m1121 0 c26 -26 22 -66 -12 -91 -41 -31 -88 0 -89 60 0 19
38 52 60 52 11 0 29 -9 41 -21z m-1427 -5 c12 -12 13 -20 5 -35 -15 -29 -40
-35 -55 -14 -18 24 -17 30 2 49 19 20 29 20 48 0z m1249 -13 c11 -45 -42 -71
-63 -30 -9 15 -8 24 1 35 17 20 56 18 62 -5z m-1938 -16 c0 -28 -29 -25 -33 3
-3 19 0 23 15 20 10 -2 18 -12 18 -23z m-464 -5 c12 -7 19 -21 19 -40 0 -23
-5 -31 -25 -36 -48 -12 -88 52 -47 75 22 13 29 13 53 1z m-247 -15 c3 -9 -1
-18 -10 -22 -19 -7 -28 2 -21 22 8 19 23 19 31 0z m461 -5 c0 -8 -8 -16 -17
-18 -13 -2 -18 3 -18 18 0 15 5 20 18 18 9 -2 17 -10 17 -18z m1139 -2 c23
-38 -36 -77 -64 -43 -10 12 -10 21 -1 41 13 29 47 30 65 2z m1920 14 c8 -13
-11 -35 -23 -28 -16 10 -14 36 3 36 8 0 17 -4 20 -8z m-1369 -32 c0 -29 -22
-37 -49 -17 -28 20 -14 49 21 45 22 -2 28 -8 28 -28z m1195 5 c0 -8 -7 -15
-15 -15 -8 0 -15 7 -15 15 0 8 7 15 15 15 8 0 15 -7 15 -15z m-2474 -6 c3 -6
0 -15 -7 -20 -13 -7 -28 5 -29 24 0 11 28 8 36 -4z m2182 -27 c2 -14 -2 -22
-12 -22 -19 0 -29 17 -22 36 8 22 30 12 34 -14z m-1938 3 c26 -32 -13 -81 -47
-59 -24 15 -27 38 -8 58 20 20 39 20 55 1z m1264 9 c26 -10 20 -44 -8 -44 -27
0 -40 22 -23 39 13 13 11 13 31 5z m-1740 -26 c15 -24 -19 -60 -53 -56 -30 3
-41 39 -20 64 16 19 59 14 73 -8z m2614 6 c32 -22 30 -76 -3 -98 -52 -34 -115
-9 -115 46 0 57 68 88 118 52z m-2023 -4 c9 -15 -14 -40 -36 -40 -22 0 -31 13
-23 34 7 18 49 22 59 6z m165 -36 c11 -12 10 -18 -3 -32 -16 -15 -18 -15 -34
0 -13 14 -14 20 -3 32 7 9 16 16 20 16 4 0 13 -7 20 -16z m567 0 c7 -18 -14
-35 -34 -27 -7 3 -13 14 -13 24 0 24 38 26 47 3z m311 -6 c35 -35 -14 -82 -63
-60 -24 11 -35 49 -18 65 11 12 68 8 81 -5z m292 -12 c32 -40 -17 -87 -54 -51
-20 20 -20 29 0 49 19 20 38 20 54 2z m328 -19 c2 -10 -3 -17 -12 -17 -18 0
-29 16 -21 31 9 14 29 6 33 -14z m-2809 -10 c13 -16 5 -27 -21 -27 -11 0 -18
7 -18 20 0 23 22 27 39 7z m1999 -11 c2 -10 -1 -23 -7 -29 -16 -16 -44 14 -35
37 8 22 38 17 42 -8z m959 3 c21 -18 15 -37 -17 -54 -38 -20 -68 -11 -76 21
-9 35 13 57 49 50 17 -3 36 -11 44 -17z m-2577 -9 c11 -11 20 -25 20 -32 0
-18 -51 -68 -70 -68 -23 0 -60 37 -60 60 0 28 35 60 65 60 14 0 34 -9 45 -20z
m1055 -5 c0 -22 -31 -33 -47 -17 -17 17 -1 44 24 40 15 -2 23 -10 23 -23z
m180 -16 c0 -17 -6 -24 -20 -24 -23 0 -33 34 -13 46 20 13 33 5 33 -22z
m-1522 -1 c8 -12 7 -24 -1 -43 -10 -21 -18 -26 -40 -23 -22 2 -28 9 -30 33 -6
48 47 73 71 33z m585 -4 c27 -19 28 -28 2 -54 -23 -23 -49 -26 -74 -7 -23 17
-13 55 17 67 30 12 30 12 55 -6z m190 -31 c5 -17 -26 -29 -40 -15 -6 6 -7 15
-3 22 9 14 37 9 43 -7z m1452 2 c10 -12 10 -18 0 -30 -25 -30 -61 -7 -46 30 3
8 12 15 19 15 8 0 20 -7 27 -15z m-1049 -5 c22 -13 25 -52 5 -70 -8 -6 -25
-10 -38 -8 -30 4 -38 56 -12 75 21 16 20 16 45 3z m633 -23 c8 -21 6 -31 -6
-43 -33 -33 -90 14 -68 57 17 30 62 22 74 -14z m1166 7 c0 -9 -7 -14 -17 -12
-25 5 -28 28 -4 28 12 0 21 -6 21 -16z m-3324 -6 c9 -15 -27 -41 -39 -29 -13
13 -1 41 17 41 8 0 18 -5 22 -12z m1361 1 c14 -14 6 -39 -12 -39 -18 0 -28 17
-21 35 6 18 18 19 33 4z m1081 -13 c2 -10 -1 -23 -7 -29 -15 -15 -46 16 -37
38 8 21 40 15 44 -9z m978 -9 c1 -34 -22 -68 -34 -50 -4 7 -6 29 -4 48 5 44
36 46 38 2z m-3220 12 c10 -17 -13 -36 -27 -22 -12 12 -4 33 11 33 5 0 12 -5
16 -11z m3072 -16 c-3 -31 -34 -44 -44 -19 -9 24 3 46 26 46 17 0 21 -5 18
-27z m545 12 c8 -18 -11 -31 -25 -17 -11 11 -3 32 12 32 4 0 10 -7 13 -15z
m-214 -8 c8 -10 7 -17 -1 -25 -16 -16 -25 -15 -32 4 -12 30 12 45 33 21z
m-835 -28 c37 -29 50 -57 35 -75 -15 -18 -58 -18 -65 1 -3 8 -14 17 -25 20
-24 8 -25 50 -1 64 24 14 26 14 56 -10z m-2404 -11 c38 -41 14 -98 -41 -98
-83 0 -75 114 8 119 7 1 21 -9 33 -21z m3388 -1 c3 -15 -2 -18 -25 -16 -15 2
-34 0 -40 -4 -16 -10 -53 9 -53 27 0 11 14 14 57 13 47 -2 58 -5 61 -20z
m-1872 2 c3 -6 -1 -18 -10 -27 -15 -15 -17 -15 -32 0 -19 19 -11 38 16 38 10
0 22 -5 26 -11z m1142 -27 c-2 -9 -13 -18 -26 -20 -17 -3 -22 1 -22 21 0 13 3
27 6 30 12 11 45 -14 42 -31z m-2233 8 c3 -5 1 -20 -6 -32 -16 -30 -14 -29
-33 -22 -16 6 -22 44 -9 57 10 10 41 8 48 -3z m1865 -60 c0 -23 -35 -28 -43
-6 -7 18 1 26 25 26 11 0 18 -7 18 -20z m-1633 -6 c17 -44 -44 -92 -93 -74
-20 8 -25 16 -22 38 2 21 11 30 38 39 48 16 70 16 77 -3z m111 7 c21 -13 10
-46 -16 -49 -24 -4 -38 18 -28 43 6 17 24 19 44 6z m-990 -24 c4 -22 -27 -35
-38 -16 -10 15 7 42 24 36 6 -2 12 -11 14 -20z m3206 13 c18 -7 26 -17 26 -34
0 -38 -61 -51 -80 -17 -13 25 -13 27 6 45 18 19 16 19 48 6z m250 -23 c19 -26
19 -30 6 -54 -8 -14 -22 -31 -31 -36 -25 -16 -69 1 -87 33 -9 16 -25 31 -34
34 -10 2 -18 12 -18 21 0 13 6 16 25 13 14 -3 30 1 37 9 19 24 78 12 102 -20z
m-536 17 c15 -4 22 -14 22 -30 0 -27 -3 -29 -52 -38 -30 -5 -39 -3 -47 12 -5
10 -7 28 -4 40 6 23 34 28 81 16z m-3203 -39 c0 -28 -29 -25 -33 3 -3 19 0 23
15 20 10 -2 18 -12 18 -23z m758 4 c8 -13 6 -24 -7 -44 -22 -34 -69 -32 -74 3
-7 49 56 80 81 41z m575 -23 c6 -31 -43 -50 -54 -21 -8 20 15 47 35 43 9 -2
17 -12 19 -22z m-1020 2 c28 -28 -4 -77 -42 -62 -25 10 -31 46 -10 61 22 16
36 17 52 1z m140 -10 c36 -36 -6 -91 -46 -62 -35 24 -23 74 18 74 9 0 21 -5
28 -12z m3512 -13 c0 -16 -6 -25 -15 -25 -15 0 -21 31 -8 43 13 14 23 6 23
-18z m-1200 0 c0 -21 -30 -31 -40 -14 -11 17 -3 29 21 29 10 0 19 -7 19 -15z
m1314 6 c8 -12 -13 -28 -47 -36 -22 -6 -27 -4 -27 12 0 11 3 23 7 26 9 10 61
8 67 -2z m-3017 -37 c7 -18 -20 -44 -44 -44 -17 0 -27 25 -19 45 7 20 55 19
63 -1z m1183 -23 c162 -41 350 -135 450 -226 22 -20 42 -24 185 -34 255 -19
429 -64 565 -145 164 -99 227 -244 172 -401 -17 -49 -102 -187 -122 -200 -6
-4 6 19 26 51 69 107 88 161 89 244 0 65 -4 82 -29 125 -86 149 -281 245 -592
290 -61 9 -136 15 -167 13 l-57 -3 47 -50 c144 -156 246 -375 283 -608 15 -88
8 -320 -10 -367 -1 -3 -2 -8 -1 -12 0 -5 -7 -8 -16 -8 -10 0 -43 -15 -73 -33
-53 -32 -291 -147 -304 -147 -3 0 -25 -9 -49 -20 -154 -72 -573 -194 -742
-215 -60 -8 -150 -23 -200 -33 -187 -40 -676 -59 -830 -33 -456 77 -671 288
-560 551 35 83 98 170 177 245 l63 60 -65 -70 c-153 -163 -202 -291 -164 -426
15 -55 26 -73 83 -129 81 -81 179 -130 336 -170 117 -30 282 -54 327 -48 l28
3 -35 43 c-56 71 -132 231 -164 346 -60 212 -62 395 -8 597 l23 87 -65 -36
c-36 -19 -79 -45 -96 -57 -43 -31 -65 -41 -31 -13 16 13 66 46 110 73 76 47
83 55 119 125 36 69 100 181 119 205 155 206 364 351 604 420 187 53 377 55
574 6z m771 -5 c-16 -19 -41 -10 -41 14 0 24 21 31 39 14 11 -10 12 -16 2 -28z
m-2896 24 c3 -5 17 -10 30 -10 13 0 26 -4 29 -9 7 -11 -22 -36 -31 -27 -3 3
-14 -1 -24 -10 -22 -20 -69 -11 -69 12 0 41 47 73 65 44z m3735 -15 c0 -8 -7
-15 -15 -15 -8 0 -15 7 -15 15 0 8 7 15 15 15 8 0 15 -7 15 -15z m-553 -11 c7
-20 -17 -37 -34 -23 -15 13 -6 39 13 39 8 0 17 -7 21 -16z m-362 -29 c0 -22
-22 -30 -44 -16 -21 14 -5 43 21 39 15 -2 23 -10 23 -23z m-2094 5 c23 -13 25
-48 4 -57 -17 -6 -55 23 -55 43 0 10 10 19 28 23 2 1 12 -4 23 -9z m-193 -25
c18 -39 15 -54 -13 -67 -21 -9 -28 -8 -45 7 -19 17 -27 64 -13 78 3 4 18 7 33
7 19 0 30 -7 38 -25z m2582 10 c15 -18 6 -45 -15 -45 -18 0 -30 24 -21 45 7
19 20 19 36 0z m235 -5 c0 -22 -39 -19 -43 3 -3 15 1 18 20 15 12 -2 23 -10
23 -18z m195 1 c0 -19 -23 -35 -34 -24 -14 15 -5 43 14 43 13 0 20 -7 20 -19z
m430 -31 c0 -11 -7 -20 -15 -20 -8 0 -15 9 -15 20 0 11 7 20 15 20 8 0 15 -9
15 -20z m-3720 -15 c20 -21 22 -30 14 -52 -24 -68 -116 -64 -122 6 -7 66 62
95 108 46z m3457 -1 c14 -37 -41 -71 -66 -40 -9 11 -10 20 -1 35 13 25 58 28
67 5z m-2683 -2 c9 -14 -12 -35 -28 -29 -23 9 -20 37 3 37 11 0 22 -4 25 -8z
m-106 -25 c2 -11 -3 -17 -17 -17 -23 0 -35 15 -26 31 10 15 39 6 43 -14z
m2358 -32 c8 -31 -10 -55 -40 -55 -47 0 -63 57 -24 84 27 19 55 6 64 -29z
m326 3 c-16 -16 -37 4 -28 28 6 16 8 16 23 1 13 -13 15 -19 5 -29z m-3865 16
c3 -8 1 -20 -5 -26 -15 -15 -43 8 -35 28 7 19 32 18 40 -2z m4146 4 c7 -23 -4
-38 -29 -38 -17 0 -24 6 -24 18 0 10 3 22 7 25 11 12 41 8 46 -5z m-343 -23
c16 -20 1 -38 -23 -29 -17 6 -22 25 -10 37 10 11 19 8 33 -8z m-2742 -18 c4
-20 -25 -34 -40 -19 -15 15 -1 44 19 40 10 -2 19 -11 21 -21z m-750 -4 c-5
-26 -38 -29 -38 -4 0 15 6 21 21 21 14 0 19 -5 17 -17z m3282 -24 c0 -25 -33
-22 -38 4 -2 12 3 17 17 17 15 0 21 -6 21 -21z m765 11 c10 -16 -16 -43 -28
-31 -11 11 -2 41 12 41 5 0 13 -5 16 -10z m-4177 -32 c27 -27 -2 -78 -43 -78
-30 0 -38 25 -20 61 16 30 42 38 63 17z m637 -8 c31 -34 0 -69 -50 -56 -44 11
-26 74 21 76 6 0 19 -9 29 -20z m3280 0 c0 -8 -8 -16 -17 -18 -13 -2 -18 3
-18 18 0 15 5 20 18 18 9 -2 17 -10 17 -18z m-81 -6 c9 -23 8 -24 -14 -24 -19
0 -27 20 -13 33 11 11 20 8 27 -9z m-3384 -29 c15 -18 5 -35 -20 -35 -10 0
-22 5 -25 10 -7 11 12 40 25 40 4 0 13 -7 20 -15z m3086 -18 c-3 -12 1 -25 11
-32 23 -17 9 -47 -19 -43 -17 2 -23 10 -24 28 -1 14 -5 33 -9 44 -5 11 -3 21
5 26 21 13 42 0 36 -23z m-3413 14 c32 -12 52 -67 38 -104 -19 -49 -74 -61
-108 -24 -50 54 -31 124 39 136 4 0 18 -3 31 -8z m3650 -19 c-2 -7 5 -12 14
-12 26 0 63 -40 63 -68 0 -36 -27 -62 -65 -62 -53 0 -65 27 -51 115 2 17 5 34
5 38 1 5 9 7 19 5 9 -2 16 -10 15 -16z m303 -3 c10 -17 -13 -36 -27 -22 -12
12 -4 33 11 33 5 0 12 -5 16 -11z m109 -19 c0 -8 -8 -16 -17 -18 -13 -2 -18 3
-18 18 0 15 5 20 18 18 9 -2 17 -10 17 -18z m-3336 -14 c9 -10 8 -16 -4 -26
-21 -17 -51 6 -34 26 6 8 15 14 19 14 4 0 13 -6 19 -14z m3283 -43 c21 -19 24
-71 4 -98 -19 -27 -74 -24 -98 4 -24 31 -23 60 4 88 25 27 64 30 90 6z m-144
-15 c-4 -29 -38 -38 -38 -10 0 22 8 32 27 32 9 0 13 -8 11 -22z m-4152 -3 c3
-8 3 -19 0 -24 -10 -16 -36 -1 -36 20 0 22 28 26 36 4z m3824 -37 c0 -11 -27
-10 -34 1 -4 5 -3 17 1 27 6 16 7 16 20 -2 7 -10 13 -21 13 -26z m-3712 9 c3
-12 -3 -17 -22 -17 -25 0 -35 18 -19 34 12 12 38 2 41 -17z m430 1 c18 -18 15
-32 -13 -62 -28 -30 -38 -32 -59 -10 -21 21 -20 36 4 62 23 24 50 28 68 10z
m3562 -9 c16 -28 -13 -61 -49 -57 -36 4 -42 50 -9 66 34 16 46 14 58 -9z
m-3910 -38 c0 -11 -5 -23 -11 -27 -15 -9 -33 12 -26 30 9 23 37 20 37 -3z
m658 -5 c2 -9 1 -24 -2 -32 -8 -21 -46 0 -46 26 0 32 42 38 48 6z m-851 -20
c-4 -9 -11 -16 -17 -16 -17 0 -24 31 -9 41 18 11 34 -5 26 -25z m651 -40 c2
-10 -1 -23 -7 -29 -15 -15 -46 16 -37 38 8 21 40 15 44 -9z m3665 0 c3 -7 0
-19 -6 -25 -14 -14 -38 5 -30 25 7 18 29 18 36 0z m-303 -11 c0 -8 -7 -15 -15
-15 -8 0 -15 7 -15 15 0 8 7 15 15 15 8 0 15 -7 15 -15z m-124 -22 c7 -26 -14
-53 -42 -53 -21 0 -36 29 -30 55 5 20 13 25 36 25 24 0 31 -5 36 -27z m-3668
-26 c5 -25 -26 -57 -54 -57 -31 0 -41 35 -18 61 22 25 67 22 72 -4z m3866 14
c3 -4 17 -6 31 -3 20 3 25 0 25 -17 0 -12 -6 -21 -15 -21 -9 0 -15 -9 -15 -24
0 -26 -37 -56 -70 -56 -26 0 -60 34 -60 62 0 31 38 68 71 68 15 0 30 -4 33 -9z
m124 -34 c2 -12 -3 -17 -17 -17 -12 0 -21 6 -21 13 0 31 32 34 38 4z m169 -14
c2 -6 -6 -17 -18 -23 -17 -10 -23 -9 -30 1 -4 8 -3 19 3 27 13 15 40 12 45 -5z
m-112 -23 c17 -18 17 -21 1 -45 -18 -27 -36 -31 -67 -15 -26 15 -24 35 7 59
33 26 36 26 59 1z m-4347 -27 c5 -17 -26 -29 -40 -15 -6 6 -7 15 -3 22 9 14
37 9 43 -7z m112 -2 c0 -20 -13 -41 -25 -41 -18 0 -28 17 -21 35 6 16 46 21
46 6z m541 -11 c29 -16 25 -58 -7 -70 -33 -13 -64 3 -64 33 0 41 31 58 71 37z
m-211 -30 c0 -10 -6 -20 -12 -23 -21 -7 -38 4 -38 23 0 10 6 20 13 23 20 7 37
-4 37 -23z m3614 -7 c4 -9 0 -23 -9 -32 -13 -14 -17 -14 -31 1 -9 9 -14 24
-11 32 8 21 43 20 51 -1z m216 -3 c0 -13 -7 -20 -20 -20 -13 0 -20 7 -20 20 0
13 7 20 20 20 13 0 20 -7 20 -20z m-4240 -39 c7 -13 7 -28 0 -46 -8 -21 -16
-26 -38 -23 -21 2 -28 9 -30 31 -6 51 45 79 68 38z m240 -2 c0 -25 -33 -22
-38 4 -2 12 3 17 17 17 15 0 21 -6 21 -21z m4180 -4 c0 -19 -39 -30 -54 -15
-8 8 -6 15 7 25 21 15 47 10 47 -10z m-3662 -9 c2 -10 -1 -23 -7 -29 -15 -15
-46 16 -37 38 8 21 40 15 44 -9z m3132 -6 c0 -13 -7 -20 -20 -20 -13 0 -20 7
-20 20 0 13 7 20 20 20 13 0 20 -7 20 -20z m98 -26 c-4 -25 -32 -24 -36 0 -4
21 18 40 31 27 5 -5 7 -17 5 -27z m138 21 c4 -8 10 -12 15 -9 5 3 18 2 30 -1
16 -5 19 -14 17 -38 -3 -28 -7 -32 -35 -35 -29 -3 -33 0 -42 35 -6 21 -11 44
-11 51 0 17 19 15 26 -3z m-3907 -41 c67 -85 -34 -181 -110 -105 -56 57 -28
131 50 131 31 0 44 -6 60 -26z m4119 -13 c8 -5 12 -22 10 -42 -3 -29 -7 -34
-32 -37 -18 -2 -32 2 -38 11 -5 9 -16 13 -28 10 -15 -4 -20 0 -20 15 0 26 17
37 33 23 9 -7 16 -5 25 10 13 20 29 24 50 10z m-3518 -34 c0 -2 -10 -12 -22
-23 l-23 -19 19 23 c18 21 26 27 26 19z m3120 -78 c0 -12 -7 -19 -19 -19 -26
0 -36 17 -21 35 15 18 40 8 40 -16z m210 17 c0 -8 -5 -18 -11 -22 -14 -8 -33
11 -25 25 10 16 36 13 36 -3z m-4114 -32 c5 -19 1 -31 -14 -46 -38 -38 -78 2
-48 47 22 33 54 33 62 -1z m439 1 c0 -22 -31 -33 -47 -17 -17 17 -1 44 24 40
15 -2 23 -10 23 -23z m3539 9 c8 -21 -1 -34 -24 -34 -22 0 -34 15 -26 35 7 20
42 19 50 -1z m414 -17 c4 -20 -25 -34 -40 -19 -15 15 -1 44 19 40 10 -2 19
-11 21 -21z m-4303 -8 c9 -13 -27 -40 -39 -29 -12 12 0 40 18 40 8 0 18 -5 21
-11z m4113 -30 c4 -30 -22 -46 -44 -28 -17 14 -18 31 -2 47 19 19 43 9 46 -19z
m-3908 -9 c17 -33 -4 -62 -43 -58 -27 2 -32 7 -32 28 0 16 8 29 25 37 33 17
38 16 50 -7z m4016 9 c10 -17 -23 -46 -37 -32 -7 7 -9 19 -6 27 7 18 33 21 43
5z m-4158 -51 c36 -36 -17 -101 -64 -79 -30 13 -31 38 -2 68 24 25 48 29 66
11z m3836 -25 c4 -9 0 -23 -9 -32 -13 -14 -17 -14 -32 1 -13 14 -14 20 -3 32
16 21 36 20 44 -1z m370 -5 c15 -25 -3 -52 -37 -56 -21 -3 -28 2 -33 24 -12
46 44 72 70 32z m-254 2 c0 -5 -9 -19 -20 -30 -11 -11 -24 -20 -30 -20 -11 0
-14 43 -3 53 10 11 53 8 53 -3z m-4072 -22 c15 -15 -3 -38 -30 -38 -23 0 -36
29 -17 41 19 12 33 11 47 -3z m4134 -25 c22 -20 23 -70 1 -95 -36 -40 -105 -9
-105 47 0 55 64 85 104 48z m94 -24 c8 -14 -18 -31 -30 -19 -9 9 0 30 14 30 5
0 12 -5 16 -11z m-352 -18 c14 -16 15 -23 6 -41 -16 -31 -74 -25 -78 8 -7 48
40 69 72 33z m-3724 -11 c33 -33 24 -72 -21 -96 -49 -25 -109 7 -109 58 0 50
91 77 130 38z m-265 -20 c0 -7 -6 -15 -12 -17 -8 -3 -13 4 -13 17 0 13 5 20
13 18 6 -3 12 -11 12 -18z m3495 16 c0 -3 -15 -14 -32 -26 l-33 -22 30 26 c31
27 35 29 35 22z m929 -45 c32 -24 20 -44 -17 -29 -37 16 -45 24 -38 37 10 16
28 13 55 -8z m-541 -18 c5 -17 -26 -29 -40 -15 -6 6 -7 15 -3 22 9 14 37 9 43
-7z m-3830 -16 c2 -12 -3 -17 -17 -17 -15 0 -21 6 -21 21 0 25 33 22 38 -4z
m3342 9 c0 -7 -82 -57 -86 -53 -3 2 14 16 38 30 46 28 48 29 48 23z m518 -54
c2 -14 -2 -22 -12 -22 -19 0 -29 17 -22 36 8 22 30 12 34 -14z m248 2 c18 -28
1 -64 -31 -64 -19 0 -28 7 -36 27 -9 24 -7 30 12 46 25 20 37 19 55 -9z m-158
-12 c3 -16 -2 -22 -17 -22 -24 0 -35 15 -27 36 9 23 40 13 44 -14z m297 8 c0
-22 -29 -18 -33 3 -3 14 1 18 15 15 10 -2 18 -10 18 -18z m-4001 2 c2 -4 1
-14 -4 -21 -11 -19 -41 -6 -34 14 6 16 29 20 38 7z m4037 -48 c19 -23 -1 -49
-37 -49 -20 0 -30 6 -32 18 -8 40 43 63 69 31z m72 -8 c7 -19 -1 -26 -30 -26
-16 0 -23 6 -23 20 0 14 7 20 24 20 13 0 26 -6 29 -14z m85 -8 c-2 -13 -7 -23
-13 -23 -5 0 -11 10 -13 23 -2 15 2 22 13 22 11 0 15 -7 13 -22z m-4381 -3 c6
-16 -22 -44 -44 -45 -16 0 -17 32 -1 48 17 17 37 15 45 -3z m3737 -37 c14 -23
-18 -58 -55 -58 -33 0 -46 28 -29 60 14 26 67 24 84 -2z m312 11 c10 -17 -13
-36 -27 -22 -12 12 -4 33 11 33 5 0 12 -5 16 -11z m-3944 -16 c25 -23 22 -51
-7 -65 -35 -16 -75 3 -75 35 0 45 46 63 82 30z m4225 -10 c4 -10 13 -23 21
-29 8 -6 12 -16 8 -22 -10 -17 -46 -15 -46 3 0 8 -4 15 -10 15 -5 0 -10 8 -10
18 0 34 26 44 37 15z m-407 -24 c0 -12 -7 -19 -20 -19 -22 0 -29 35 -7 43 18
6 27 -2 27 -24z m210 -6 c25 -32 20 -69 -12 -95 -43 -37 -101 -7 -101 52 0 66
73 94 113 43z m-3937 11 c11 -11 -5 -34 -24 -34 -18 0 -26 20 -12 33 8 9 28 9
36 1z m-335 -57 c2 -10 -3 -17 -12 -17 -18 0 -29 16 -21 31 9 14 29 6 33 -14z
m122 -18 c0 -25 -33 -22 -38 4 -2 12 3 17 17 17 15 0 21 -6 21 -21z m4288 -11
c3 -22 -2 -29 -22 -34 -32 -8 -46 1 -46 30 0 30 9 38 40 34 19 -2 26 -10 28
-30z m-653 -23 c0 -14 -8 -21 -27 -23 -22 -3 -28 1 -28 16 0 25 10 33 35 30
12 -2 20 -10 20 -23z m-3431 -21 c9 -8 16 -22 16 -29 0 -13 -26 -45 -36 -45
-22 0 -44 25 -44 50 0 39 35 53 64 24z m3680 7 c9 -14 -4 -41 -19 -41 -17 0
-38 27 -30 40 8 12 42 13 49 1z m493 -27 c7 -18 -17 -38 -31 -24 -11 11 -1 40
14 40 6 0 13 -7 17 -16z m-172 -19 c0 -28 -29 -25 -33 3 -3 19 0 23 15 20 10
-2 18 -12 18 -23z m-4095 -6 c0 -25 -33 -22 -38 4 -2 12 3 17 17 17 15 0 21
-6 21 -21z m3870 -15 c0 -8 -7 -14 -15 -14 -15 0 -21 21 -9 33 10 9 24 -2 24
-19z m348 3 c2 -10 -3 -17 -12 -17 -10 0 -16 9 -16 21 0 24 23 21 28 -4z
m-538 -2 c15 -18 6 -45 -14 -45 -22 0 -38 34 -24 48 16 16 23 15 38 -3z m331
-5 c42 -23 8 -90 -38 -73 -35 13 -43 42 -17 67 18 19 28 20 55 6z m-3853 -33
c2 -12 -3 -17 -17 -17 -12 0 -21 6 -21 13 0 31 32 34 38 4z m3730 -19 c3 -22
-3 -30 -29 -43 -56 -29 -96 4 -68 56 8 16 19 19 52 17 37 -3 42 -6 45 -30z
m295 20 c2 -7 0 -23 -4 -36 -7 -18 -15 -23 -36 -20 -28 3 -40 25 -29 54 7 17
62 19 69 2z m-4178 -38 c10 -31 -16 -75 -45 -75 -22 0 -25 5 -28 39 -4 42 8
56 45 56 13 0 24 -8 28 -20z m2918 6 c-4 -8 -37 -51 -71 -95 -94 -119 -237
-231 -382 -299 -336 -158 -705 -148 -1036 28 -100 53 -162 100 -132 100 9 0
21 -7 28 -15 16 -20 40 -19 40 1 0 13 14 15 103 10 71 -3 121 0 167 10 64 15
116 25 235 45 33 5 69 11 80 13 11 2 56 7 100 11 44 4 127 18 185 32 58 13
132 30 165 37 33 7 85 21 115 30 75 22 382 103 398 105 8 1 10 -4 5 -13z
m-3085 -13 c-2 -10 -10 -18 -18 -18 -8 0 -16 8 -18 18 -2 12 3 17 18 17 15 0
20 -5 18 -17z m3770 -15 c7 -7 12 -22 12 -34 0 -51 -67 -60 -85 -11 -8 24 -6
31 10 43 23 17 47 18 63 2z m622 -3 c0 -8 -9 -15 -20 -15 -11 0 -20 7 -20 15
0 8 9 15 20 15 11 0 20 -7 20 -15z m-4056 -27 c21 -29 20 -72 -1 -93 -12 -13
-28 -16 -59 -12 -23 2 -47 0 -52 -5 -6 -6 -15 -7 -21 -4 -17 11 -13 36 7 44 9
4 18 18 20 32 5 54 77 79 106 38z m174 -45 c3 -20 -1 -23 -26 -23 -31 0 -43
14 -34 38 8 23 57 10 60 -15z m3912 12 c0 -8 -9 -15 -20 -15 -11 0 -20 7 -20
15 0 8 9 15 20 15 11 0 20 -7 20 -15z m-156 -18 c11 -8 17 -23 14 -38 -4 -31
-46 -39 -65 -13 -17 23 -16 29 3 48 19 19 25 20 48 3z m-350 -13 c25 -10 19
-34 -9 -34 -18 0 -25 5 -25 20 0 21 8 24 34 14z m-3328 -29 c9 -35 -2 -55 -29
-55 -44 0 -65 49 -29 69 30 18 51 12 58 -14z m3094 5 c0 -13 -7 -20 -18 -20
-24 0 -32 8 -25 26 8 22 43 17 43 -6z m450 5 c29 -35 -27 -88 -70 -65 -27 15
-25 34 6 59 31 25 47 26 64 6z m-340 -31 c0 -17 -6 -24 -20 -24 -25 0 -36 25
-20 45 16 20 40 7 40 -21z m-3715 -10 c0 -10 -8 -20 -18 -22 -22 -4 -35 27
-16 39 20 12 34 5 34 -17z m3945 1 c14 -38 3 -57 -34 -53 -24 2 -32 8 -34 26
-5 36 5 52 33 52 18 0 28 -7 35 -25z m-3252 -61 c-19 -19 -38 -11 -38 16 0 24
21 31 40 14 12 -12 12 -16 -2 -30z m-348 6 c0 -18 -23 -34 -34 -23 -11 11 -6
41 7 46 17 6 27 -1 27 -23z m-53 4 c9 -24 -9 -47 -46 -57 -50 -12 -82 28 -49
61 18 18 87 15 95 -4z m-173 -46 c15 -24 -22 -73 -55 -73 -34 0 -38 45 -7 74
25 24 46 24 62 -1z m3396 1 c0 -4 7 -6 15 -3 20 8 45 -13 38 -32 -6 -16 -39
-19 -48 -4 -3 6 -15 10 -26 10 -24 0 -37 29 -19 40 15 9 40 2 40 -11z m223 2
c15 -8 27 -20 27 -26 0 -37 -91 -48 -98 -12 -4 18 26 61 37 54 3 -1 18 -9 34
-16z m494 3 c1 -5 -2 -16 -7 -24 -12 -20 -35 2 -26 25 6 17 27 16 33 -1z
m-3392 -29 c0 -25 -40 -33 -49 -10 -9 24 2 37 27 33 14 -2 22 -10 22 -23z
m3218 19 c13 -14 -7 -34 -34 -34 -27 0 -39 17 -22 33 8 9 48 9 56 1z m-163
-30 c0 -8 -7 -14 -15 -14 -15 0 -21 21 -9 33 10 9 24 -2 24 -19z m380 -7 c0
-8 -3 -17 -7 -20 -9 -9 -34 13 -27 24 8 14 34 11 34 -4z m-3870 -27 c32 -32
26 -76 -12 -100 -40 -24 -61 -25 -93 -4 -33 22 -33 67 0 99 30 31 77 33 105 5z
m3638 8 c28 -28 2 -88 -32 -75 -11 4 -16 -3 -18 -25 -2 -20 -13 -38 -31 -52
-23 -17 -32 -19 -57 -9 -18 7 -32 7 -36 2 -7 -13 -34 -11 -34 2 0 6 9 13 20
16 15 4 18 11 14 32 -11 51 46 90 99 67 12 -6 17 -4 17 7 0 16 26 47 39 47 4
0 12 -5 19 -12z m-3460 -29 c4 -19 -19 -31 -38 -19 -18 11 -4 42 17 38 10 -2
19 -10 21 -19z m-660 -16 c5 -17 -26 -29 -40 -15 -6 6 -7 15 -3 22 9 14 37 9
43 -7z m230 -11 c2 -14 -2 -22 -12 -22 -19 0 -29 17 -22 36 8 22 30 12 34 -14z
m3362 -1 c14 -27 13 -28 -14 -46 -27 -18 -53 -11 -61 16 -14 43 53 69 75 30z
m-3282 -67 c-4 -21 -39 -26 -45 -8 -2 7 4 19 13 28 19 20 38 8 32 -20z m680
24 c22 -22 14 -57 -14 -64 -41 -10 -63 44 -26 65 22 13 26 13 40 -1z m2417 -8
c0 -8 -8 -16 -17 -18 -13 -2 -18 3 -18 18 0 15 5 20 18 18 9 -2 17 -10 17 -18z
m483 -1 c2 -10 -6 -19 -20 -22 -26 -7 -42 11 -26 31 14 17 42 11 46 -9z
m-3167 -32 c8 -48 -13 -76 -40 -55 -25 20 -31 31 -31 59 0 33 8 41 40 37 20
-2 26 -10 31 -41z m2919 31 c0 -7 -5 -20 -10 -28 -9 -13 -11 -13 -19 -1 -5 8
-7 20 -4 28 6 17 33 17 33 1z m175 -33 c0 -25 -4 -31 -27 -33 -22 -3 -29 2
-34 22 -8 34 3 48 34 44 23 -2 27 -8 27 -33z m415 20 c0 -9 -7 -18 -16 -22
-18 -7 -39 11 -30 26 11 17 46 13 46 -4z m-4070 -14 c0 -23 -16 -36 -25 -21
-9 14 1 40 15 40 5 0 10 -9 10 -19z m420 -35 c0 -18 -39 -31 -52 -18 -15 15 0
32 28 32 14 0 24 -6 24 -14z m-142 -39 c2 -10 -3 -17 -12 -17 -18 0 -29 16
-21 31 9 14 29 6 33 -14z m792 3 c0 -11 -7 -23 -15 -26 -11 -5 -13 -10 -5 -19
13 -16 -21 -62 -38 -51 -18 11 -14 53 4 60 10 4 14 12 10 22 -8 21 1 34 25 34
12 0 19 -7 19 -20z m-125 -21 c0 -15 -7 -25 -18 -27 -22 -4 -33 24 -17 43 18
21 35 13 35 -16z m2499 5 c10 -26 7 -34 -13 -34 -23 0 -35 15 -27 35 7 20 32
19 40 -1z m-2999 -14 c0 -8 -8 -16 -17 -18 -13 -2 -18 3 -18 18 0 15 5 20 18
18 9 -2 17 -10 17 -18z m3113 3 c-4 -22 -22 -20 -26 1 -2 10 3 16 13 16 10 0
15 -7 13 -17z m-264 -9 c8 -21 -1 -34 -24 -34 -20 0 -30 17 -22 38 6 17 39 15
46 -4z m616 -9 c0 -8 -7 -15 -15 -15 -8 0 -15 7 -15 15 0 8 7 15 15 15 8 0 15
-7 15 -15z m-270 -10 c10 -12 10 -19 2 -27 -15 -15 -48 14 -38 31 10 15 21 14
36 -4z m-3504 -16 c13 -21 -8 -49 -36 -49 -35 0 -52 36 -26 56 17 12 52 8 62
-7z m3004 -4 c0 -19 -20 -29 -32 -17 -15 15 -2 43 17 36 8 -3 15 -12 15 -19z
m406 -31 c19 -46 18 -64 -8 -91 -28 -30 -49 -29 -87 3 -35 29 -39 53 -14 95
29 49 87 45 109 -7z m-3178 -1 c3 -28 -1 -33 -22 -39 -38 -9 -56 2 -56 34 0
37 8 44 45 40 26 -3 30 -7 33 -35z m362 18 c0 -22 -21 -33 -40 -21 -18 11 -4
40 20 40 13 0 20 -7 20 -19z m3075 -36 c0 -23 -5 -31 -21 -33 -27 -4 -47 21
-39 48 5 16 14 20 33 18 23 -2 27 -8 27 -33z m-3324 -1 c19 -23 -1 -49 -37
-49 -30 0 -42 20 -30 51 7 19 50 18 67 -2z m365 -9 c6 -16 -12 -45 -28 -45
-15 0 -21 30 -8 45 16 19 29 19 36 0z m374 -19 c0 -17 -25 -27 -45 -20 -18 7
-20 41 -2 47 17 6 47 -11 47 -27z m-680 9 c0 -8 -7 -15 -15 -15 -8 0 -15 7
-15 15 0 8 7 15 15 15 8 0 15 -7 15 -15z m3114 -17 c14 -23 -3 -52 -32 -56
-29 -4 -51 40 -32 63 16 20 49 16 64 -7z m-2274 -4 c11 -13 10 -19 -7 -36 -25
-24 -53 -18 -53 11 0 11 8 25 18 30 23 14 27 13 42 -5z m-286 -15 c18 -27 11
-47 -21 -55 -51 -13 -94 31 -61 64 19 19 65 14 82 -9z m2319 6 c11 -8 17 -23
15 -37 -2 -18 -9 -23 -32 -23 -40 0 -56 27 -32 54 22 24 25 25 49 6z m-3193
-25 c0 -13 -7 -20 -18 -20 -24 0 -32 8 -25 26 8 22 43 17 43 -6z m737 4 c7
-18 -14 -61 -34 -68 -21 -9 -53 12 -53 34 0 42 73 71 87 34z m2113 -14 c8 -15
6 -24 -10 -40 -22 -22 -55 -26 -65 -9 -5 7 -13 5 -25 -6 -19 -17 -50 -11 -50
10 0 19 28 38 49 32 11 -2 25 3 35 14 21 25 53 24 66 -1z m120 5 c0 -16 -27
-32 -37 -22 -3 4 -3 13 0 22 8 20 37 20 37 0z m-3072 -12 c5 -17 -26 -29 -40
-15 -6 6 -7 15 -3 22 9 14 37 9 43 -7z m483 -14 c25 -25 19 -61 -13 -96 -26
-28 -62 -29 -88 -3 -26 26 -25 60 1 94 25 32 70 35 100 5z m2756 -16 c3 -8 0
-26 -6 -39 -16 -36 -65 -31 -69 7 -2 15 4 33 12 42 18 17 55 12 63 -10z
m-2989 -6 c5 -23 -36 -43 -44 -22 -7 18 14 47 30 42 6 -2 12 -11 14 -20z
m2277 -7 c0 -30 -35 -39 -55 -14 -12 14 -12 18 5 30 28 21 50 13 50 -16z
m-835 -15 c27 -33 -17 -74 -48 -43 -16 16 -15 23 4 42 19 20 28 20 44 1z m-93
-11 c7 -20 -22 -45 -43 -37 -14 5 -19 35 -7 46 12 13 44 7 50 -9z m1021 -12
c3 -16 -2 -22 -17 -22 -26 0 -36 17 -20 36 16 19 33 13 37 -14z m962 13 c0 -8
-9 -15 -20 -15 -11 0 -20 7 -20 15 0 8 9 15 20 15 11 0 20 -7 20 -15z m-1612
-12 c5 -18 -28 -29 -38 -12 -5 7 -6 17 -3 22 7 12 35 5 41 -10z m-793 -17 c0
-22 -14 -29 -34 -17 -19 12 -6 43 16 39 10 -2 18 -12 18 -22z m1119 18 c22 -9
20 -50 -4 -74 -24 -24 -34 -25 -54 -4 -22 21 -20 31 9 59 27 28 27 28 49 19z
m484 -17 c4 -22 -24 -33 -43 -17 -12 10 -13 16 -4 27 16 18 43 13 47 -10z
m-1375 -1 c7 -18 -1 -26 -25 -26 -11 0 -18 7 -18 20 0 23 35 28 43 6z m1465
-3 c5 -17 -26 -29 -40 -15 -6 6 -7 15 -3 22 9 14 37 9 43 -7z m214 0 c42 -38
0 -90 -48 -58 -30 19 -31 39 -2 59 28 20 27 20 50 -1z m244 6 c3 -6 2 -15 -2
-19 -12 -12 -38 5 -30 19 9 14 23 14 32 0z m114 -4 c10 -12 9 -16 -5 -21 -19
-8 -40 9 -31 25 10 15 21 14 36 -4z m-3163 -21 c4 -10 -4 -24 -23 -40 -35 -28
-43 -29 -51 -7 -4 10 3 24 21 40 32 27 44 29 53 7z m724 -28 c-16 -19 -41 -10
-41 14 0 24 21 31 39 14 11 -10 12 -16 2 -28z m-391 4 c0 -15 -7 -20 -25 -20
-18 0 -25 5 -25 20 0 15 7 20 25 20 18 0 25 -5 25 -20z m2791 4 c17 -21 1 -46
-36 -56 -48 -12 -72 23 -39 56 20 21 58 20 75 0z m-1244 -20 c3 -8 1 -20 -5
-26 -15 -15 -43 8 -35 28 7 19 32 18 40 -2z m1009 -17 c1 -1 6 -11 11 -21 10
-18 11 -18 18 3 5 18 13 22 38 19 28 -3 32 -7 32 -33 0 -24 -5 -31 -23 -33
-13 -2 -29 1 -36 7 -10 9 -16 4 -26 -19 -20 -49 -79 -54 -112 -9 -35 47 10
106 72 93 14 -3 25 -6 26 -7z m-506 -22 c12 -31 4 -52 -21 -60 -27 -9 -49 12
-49 45 0 33 7 40 37 40 16 0 27 -8 33 -25z m875 5 c0 -18 -33 -26 -47 -12 -6
6 -7 15 -3 22 10 16 50 8 50 -10z m-2966 -36 c-14 -17 -39 -7 -39 15 0 27 12
33 32 15 13 -13 15 -20 7 -30z m173 29 c24 -21 23 -68 -2 -93 -61 -61 -147 24
-88 87 25 27 64 30 90 6z m632 -9 c10 -25 -11 -52 -50 -64 -30 -10 -38 -9 -55
6 -38 34 -19 70 41 76 44 4 57 0 64 -18z m616 -9 c16 -19 4 -35 -26 -35 -17 0
-24 6 -24 18 0 34 28 43 50 17z m448 -8 c4 -20 -25 -34 -39 -20 -14 14 1 45
20 41 9 -2 17 -11 19 -21z m-2334 -18 c-3 -5 -14 -9 -25 -9 -21 0 -26 26 -6
33 15 5 39 -12 31 -24z m1037 21 c24 -13 25 -46 2 -58 -36 -19 -80 16 -62 49
11 21 31 24 60 9z m-797 -37 c-24 -17 -44 -17 -44 2 0 21 32 36 48 22 11 -9
11 -13 -4 -24z m2636 6 c9 -16 8 -26 -5 -45 -8 -13 -22 -24 -30 -24 -20 0 -38
37 -31 66 8 31 50 33 66 3z m-2137 4 c4 -3 2 -12 -4 -20 -9 -10 -15 -10 -25
-2 -8 6 -11 15 -8 20 6 11 28 12 37 2z m674 -4 c17 -17 4 -39 -22 -39 -13 0
-25 6 -28 14 -6 15 11 36 28 36 6 0 16 -5 22 -11z m341 -18 c22 -14 10 -46
-19 -49 -34 -4 -57 22 -39 43 14 17 38 19 58 6z m429 -7 c8 -23 -12 -38 -41
-30 -39 10 -36 46 4 46 19 0 33 -6 37 -16z m-1777 -13 c21 -39 -24 -85 -54
-55 -16 16 -22 55 -9 67 13 14 53 6 63 -12z m2336 -5 c7 -29 -1 -46 -22 -46
-8 0 -12 -5 -9 -10 9 -15 -3 -47 -21 -54 -22 -9 -54 12 -54 34 0 11 9 25 20
32 11 7 20 20 20 28 0 42 56 55 66 16z m-1111 -6 c9 -10 15 -26 12 -34 -8 -21
-54 -31 -72 -16 -15 13 -20 51 -8 63 13 14 50 7 68 -13z m-820 -35 c0 -25 -4
-31 -26 -33 -31 -4 -44 19 -28 49 6 13 18 19 32 17 17 -2 22 -10 22 -33z
m2470 5 c0 -8 -10 -16 -22 -18 -22 -3 -32 16 -16 32 12 11 38 2 38 -14z
m-1294 -10 c27 -15 24 -48 -6 -62 -19 -8 -28 -8 -40 2 -11 9 -19 10 -23 4 -12
-18 -40 -23 -57 -10 -15 11 -14 14 6 40 16 20 28 27 46 23 13 -2 26 0 29 4 7
12 21 11 45 -1z m1109 -5 c0 -8 -7 -15 -15 -15 -16 0 -20 12 -8 23 11 12 23 8
23 -8z m-546 -26 c51 -40 26 -129 -37 -129 -10 0 -32 13 -48 30 -35 34 -33 61
7 98 31 27 44 28 78 1z m-1554 -19 c0 -14 -7 -20 -21 -20 -19 0 -19 -1 -5 -22
22 -31 20 -64 -4 -88 -41 -41 -110 -15 -110 42 0 33 31 68 60 68 13 0 20 7 20
20 0 16 7 20 30 20 23 0 30 -4 30 -20z m-392 -7 c5 -17 -26 -29 -40 -15 -6 6
-7 15 -3 22 9 14 37 9 43 -7z m2236 -5 c26 -42 -46 -76 -89 -43 -20 15 -20 15
9 41 31 28 63 28 80 2z m-2114 -14 c0 -16 -26 -19 -35 -4 -3 6 -4 14 0 20 8
13 35 1 35 -16z m-430 7 c0 -6 -5 -13 -10 -16 -15 -9 -43 3 -35 15 8 13 45 13
45 1z m2114 -20 c8 -12 -21 -34 -34 -26 -17 11 -11 35 9 35 11 0 22 -4 25 -9z
m-2294 -20 c0 -11 -5 -23 -11 -27 -15 -9 -33 12 -26 30 9 23 37 20 37 -3z
m1003 -24 c10 -42 -3 -67 -34 -67 -34 0 -42 35 -16 74 27 43 39 41 50 -7z
m242 17 c18 -19 16 -33 -8 -48 -18 -11 -47 0 -54 21 -4 12 23 43 37 43 5 0 16
-7 25 -16z m-887 -10 c-5 -25 -35 -41 -49 -27 -9 9 -9 16 1 28 17 21 52 20 48
-1z m1081 -2 c13 -24 -12 -62 -39 -62 -21 0 -37 39 -26 65 8 21 53 19 65 -3z
m1369 -5 c2 -11 -3 -17 -17 -17 -23 0 -35 15 -26 31 10 15 39 6 43 -14z
m-2611 -13 c3 -8 1 -20 -5 -26 -15 -15 -43 8 -35 28 7 19 32 18 40 -2z m1763
-14 c36 -36 21 -89 -30 -105 -11 -3 -35 1 -55 11 -29 13 -35 22 -35 47 0 17 7
39 17 49 22 24 77 24 103 -2z m-786 1 c9 -15 -23 -36 -36 -23 -5 5 -7 15 -4
21 9 13 33 14 40 2z m1034 -35 c-2 -26 -8 -32 -31 -34 -18 -2 -29 2 -33 12 -3
9 -15 16 -25 16 -10 0 -19 5 -19 10 0 6 0 13 0 18 -1 9 68 19 93 13 14 -3 17
-11 15 -35z m-1604 18 c10 -25 -20 -64 -49 -64 -23 0 -55 23 -55 40 0 36 92
56 104 24z m1004 0 c29 -20 30 -74 2 -99 -27 -24 -70 -22 -92 5 -23 29 -23 51
3 84 23 29 54 33 87 10z m176 10 c10 -4 16 -18 16 -40 0 -28 -5 -35 -25 -40
-14 -3 -32 -4 -40 0 -20 7 -19 50 1 70 17 18 24 19 48 10z m-1305 -27 c8 -10
7 -17 -1 -25 -15 -15 -39 3 -31 24 7 18 17 18 32 1z m2019 -19 c4 -19 -35 -35
-50 -20 -6 6 -8 18 -4 27 8 21 50 16 54 -7z m106 -4 c23 -9 20 -34 -3 -34 -22
0 -35 15 -26 30 7 12 8 12 29 4z m-1776 -47 c4 -20 -25 -34 -40 -19 -15 15 -1
44 19 40 10 -2 19 -11 21 -21z m242 -3 c0 -8 -9 -14 -20 -14 -22 0 -28 26 -7
33 16 6 27 -1 27 -19z m172 -1 c22 -20 23 -70 1 -95 -36 -40 -103 -9 -103 47
0 18 7 41 16 49 20 21 63 20 86 -1z m108 3 c0 -7 -7 -19 -15 -26 -20 -16 -38
-1 -29 23 7 20 44 23 44 3z m-366 -31 c-7 -18 -40 -25 -53 -12 -17 17 -13 27
12 36 25 10 48 -4 41 -24z m1122 24 c10 -16 -18 -40 -35 -29 -12 7 -12 11 -2
24 16 19 27 20 37 5z m239 -9 c0 -22 -39 -19 -43 3 -3 15 1 18 20 15 12 -2 23
-10 23 -18z m-1901 -16 c7 -19 -1 -34 -19 -34 -18 0 -28 17 -21 35 7 20 32 19
40 -1z m343 -21 c5 -15 -36 -28 -49 -15 -6 6 -7 15 -3 22 9 14 47 9 52 -7z
m1163 -8 c0 -18 -33 -66 -43 -62 -17 5 -21 35 -7 52 12 14 50 21 50 10z m175
-16 c10 -14 -24 -49 -41 -42 -17 6 -18 40 -1 46 21 9 36 7 42 -4z m85 -9 c0
-13 -7 -20 -20 -20 -13 0 -20 7 -20 20 0 13 7 20 20 20 13 0 20 -7 20 -20z
m-725 -10 c0 -22 -39 -19 -43 3 -3 15 1 18 20 15 12 -2 23 -10 23 -18z m-845
-6 c0 -9 -7 -14 -17 -12 -25 5 -28 28 -4 28 12 0 21 -6 21 -16z m318 -16 c6
-53 -34 -88 -66 -56 -30 30 -4 91 36 86 21 -2 28 -9 30 -30z m735 16 c11 -11
-5 -34 -24 -34 -18 0 -26 20 -12 33 8 9 28 9 36 1z m717 -29 c0 -8 -7 -15 -15
-15 -8 0 -15 7 -15 15 0 8 7 15 15 15 8 0 15 -7 15 -15z m-1315 -40 c0 -25
-31 -43 -46 -28 -10 10 -8 17 6 33 21 24 40 21 40 -5z m359 3 c23 -38 -36 -77
-64 -43 -10 12 -10 21 -1 41 13 29 47 30 65 2z m391 -18 c0 -8 -8 -16 -17 -18
-13 -2 -18 3 -18 18 0 15 5 20 18 18 9 -2 17 -10 17 -18z"/>
</g>
</svg>
